{"title":"Children.of.the.Corn.Genesis.2011.DVDRip.Xvid.AC3-SiC ","uid":6648137,"size":1418542146,"categoryP":"video","categoryS":"movies","magnet":"?xt=urn:btih:00ca331d69c9c9fc1370b4c93d691d9e2edcb228&amp;dn=Children.of.the.Corn.Genesis.2011.DVDRip.Xvid.AC3-SiC+&amp;tr=udp%3A%2F%2Ftracker.openbittorrent.com%3A80&amp;tr=udp%3A%2F%2Fopen.demonii.com%3A1337&amp;tr=udp%3A%2F%2Ftracker.coppersurfer.tk%3A6969&amp;tr=udp%3A%2F%2Fexodus.desync.com%3A6969","seeders":0,"leechers":1,"uploader":"HeroMaster","files":-1,"time":1315028667,"description":"Children.of.the.Corn.Genesis.2011.DVDRip.Xvid.AC3-SiC\n\n\nIMDB Link: http://www.imdb.com/title/tt1745672/\n\n\nMediaInfo:\n\n\nGeneral\n\nComplete name: Children.of.the.Corn.Genesis.2011.DVDRip.Xvid.AC3-SiC.avi\nFormat: AVI\nFormat/Info: Audio Video Interleave\nFile size: 1.30 GiB\nDuration: 1h 20mn\nOverall bit rate: 2 304 Kbps\n\n\nVideo\n\nID: 0\nFormat: MPEG-4 Visual\nFormat profile: Advanced Simple@L5\nFormat settings, BVOP: Yes\nFormat settings, QPel: No\nFormat settings, GMC: No warppoints\nFormat settings, Matrix: Default (H.263)\nMuxing mode: Packed bitstream\nCodec ID: XVID\nCodec ID/Hint: XviD\nDuration: 1h 20mn\nBit rate: 1 912 Kbps\nWidth: 720 pixels\nHeight: 304 pixels\nDisplay aspect ratio: 2.35:1\nFrame rate: 23.976 fps\nResolution: 8 bits\nColorimetry: 4:2:0\nScan type: Progressive\nBits/(Pixel*Frame): 0.364\nStream size: 1.08 GiB (83%)\nWriting library: XviD 64\n\n\nAudio\n\nID: 1\nFormat: AC-3\nFormat/Info: Audio Coding 3\nFormat_Settings_ModeExtension: CM (complete main)\nCodec ID: 2000\nDuration: 1h 20mn\nBit rate mode: Constant\nBit rate: 384 Kbps\nChannel(s): 6 channels\nChannel positions: Front: L C R, Side: L R, LFE\nSampling rate: 48.0 KHz\nStream size: 221 MiB (17%)\nAlignment: Aligned on interleaves\nInterleave, duration: 64 ms (1.53 video frames)\nInterleave, preload duration: 960 ms\nTitle: 6ch English\n\n\nSource: In House\n\n\nGreetz:\n\n\nCaptainHomey, Cyanide, CM8, Rx, THC, ELEKTRI4KA\nKillerhz, PA, YeFsTe, BoxSlots, MrRep and everyone in the struggle\n\n\nScreens:\n\n &lt;a href=&quot;\nhttp://www.pix2links.com/images/78303302620106687710.png&quot; rel=&quot;nofollow&quot; target=&quot;_NEW&quot;&gt;\nhttp://www.pix2links.com/images/78303302620106687710.png&lt;/a&gt;\n    \t &lt;a href=&quot;\nhttp://www.pix2links.com/images/51885738642757109924.png&quot; rel=&quot;nofollow&quot; target=&quot;_NEW&quot;&gt;\nhttp://www.pix2links.com/images/51885738642757109924.png&lt;/a&gt;\n    \t &lt;a href=&quot;\nhttp://www.pix2links.com/images/02871530392801208264.png&quot; rel=&quot;nofollow&quot; target=&quot;_NEW&quot;&gt;\nhttp://www.pix2links.com/images/02871530392801208264.png&lt;/a&gt;\n\n\nENJOY!","torrent":{"xt":"urn:btih:00ca331d69c9c9fc1370b4c93d691d9e2edcb228","amp;dn":"Children.of.the.Corn.Genesis.2011.DVDRip.Xvid.AC3-SiC+","amp;tr":["udp%3A%2F%2Ftracker.openbittorrent.com%3A80","udp%3A%2F%2Fopen.demonii.com%3A1337","udp%3A%2F%2Ftracker.coppersurfer.tk%3A6969","udp%3A%2F%2Fexodus.desync.com%3A6969"],"infoHash":"00ca331d69c9c9fc1370b4c93d691d9e2edcb228","infoHashBuffer":{"type":"Buffer","data":[0,202,51,29,105,201,201,252,19,112,180,201,61,105,29,158,46,220,178,40]},"announce":[],"urlList":[]}}